<mxfile host="app.diagrams.net" modified="2021-05-20T02:17:05.330Z" agent="5.0 (Windows NT 10.0; Win64; x64) AppleWebKit/537.36 (KHTML, like Gecko) Chrome/90.0.4430.212 Safari/537.36" etag="rjNzrs4DdPCm_Us0iXr3" version="14.6.13" type="github">
  <diagram id="CL8leKWfxjIJt_8WidKE" name="Page-1">
    <mxGraphModel dx="1038" dy="580" grid="1" gridSize="10" guides="1" tooltips="1" connect="1" arrows="1" fold="1" page="1" pageScale="1" pageWidth="827" pageHeight="1169" math="0" shadow="0">
      <root>
        <mxCell id="0" />
        <mxCell id="1" parent="0" />
        <mxCell id="cTBSaIggxrQVCcP5OS2q-3" value="" style="edgeStyle=orthogonalEdgeStyle;rounded=0;orthogonalLoop=1;jettySize=auto;html=1;" edge="1" parent="1" source="cTBSaIggxrQVCcP5OS2q-1" target="cTBSaIggxrQVCcP5OS2q-2">
          <mxGeometry relative="1" as="geometry" />
        </mxCell>
        <mxCell id="cTBSaIggxrQVCcP5OS2q-5" value="" style="edgeStyle=orthogonalEdgeStyle;rounded=0;orthogonalLoop=1;jettySize=auto;html=1;" edge="1" parent="1" source="cTBSaIggxrQVCcP5OS2q-1" target="cTBSaIggxrQVCcP5OS2q-4">
          <mxGeometry relative="1" as="geometry" />
        </mxCell>
        <mxCell id="cTBSaIggxrQVCcP5OS2q-7" value="" style="edgeStyle=orthogonalEdgeStyle;rounded=0;orthogonalLoop=1;jettySize=auto;html=1;" edge="1" parent="1" source="cTBSaIggxrQVCcP5OS2q-1" target="cTBSaIggxrQVCcP5OS2q-6">
          <mxGeometry relative="1" as="geometry" />
        </mxCell>
        <mxCell id="cTBSaIggxrQVCcP5OS2q-9" value="" style="edgeStyle=orthogonalEdgeStyle;rounded=0;orthogonalLoop=1;jettySize=auto;html=1;" edge="1" parent="1" source="cTBSaIggxrQVCcP5OS2q-1" target="cTBSaIggxrQVCcP5OS2q-8">
          <mxGeometry relative="1" as="geometry" />
        </mxCell>
        <mxCell id="cTBSaIggxrQVCcP5OS2q-1" value="server" style="rounded=0;whiteSpace=wrap;html=1;" vertex="1" parent="1">
          <mxGeometry x="354" y="150" width="120" height="60" as="geometry" />
        </mxCell>
        <mxCell id="cTBSaIggxrQVCcP5OS2q-2" value="500.js" style="rounded=0;whiteSpace=wrap;html=1;" vertex="1" parent="1">
          <mxGeometry x="554" y="150" width="120" height="60" as="geometry" />
        </mxCell>
        <mxCell id="cTBSaIggxrQVCcP5OS2q-4" value="index" style="rounded=0;whiteSpace=wrap;html=1;" vertex="1" parent="1">
          <mxGeometry x="354" y="10" width="120" height="60" as="geometry" />
        </mxCell>
        <mxCell id="cTBSaIggxrQVCcP5OS2q-6" value="400.js" style="rounded=0;whiteSpace=wrap;html=1;" vertex="1" parent="1">
          <mxGeometry x="154" y="150" width="120" height="60" as="geometry" />
        </mxCell>
        <mxCell id="cTBSaIggxrQVCcP5OS2q-8" value="index" style="rounded=0;whiteSpace=wrap;html=1;" vertex="1" parent="1">
          <mxGeometry x="354" y="290" width="120" height="60" as="geometry" />
        </mxCell>
      </root>
    </mxGraphModel>
  </diagram>
</mxfile>
